<mxfile host="app.diagrams.net" modified="2023-10-16T07:38:58.670Z" agent="Mozilla/5.0 (Windows NT 10.0; Win64; x64) AppleWebKit/537.36 (KHTML, like Gecko) Chrome/117.0.0.0 Safari/537.36" etag="ErCMaG_PXn0yMUZN13RW" version="22.0.4" type="device">
  <diagram name="Page-1" id="jTNsOafAtQjt5Us7RyiZ">
    <mxGraphModel dx="1050" dy="574" grid="1" gridSize="10" guides="1" tooltips="1" connect="1" arrows="1" fold="1" page="1" pageScale="1" pageWidth="850" pageHeight="1100" math="0" shadow="0">
      <root>
        <mxCell id="0" />
        <mxCell id="1" parent="0" />
        <mxCell id="7S3_S_a6OIe_uZsWt0qb-15" value="US East 2 Region" style="sketch=0;outlineConnect=0;gradientColor=none;html=1;whiteSpace=wrap;fontSize=12;fontStyle=0;shape=mxgraph.aws4.group;grIcon=mxgraph.aws4.group_region;strokeColor=#879196;fillColor=none;verticalAlign=top;align=left;spacingLeft=30;fontColor=#879196;dashed=1;" vertex="1" parent="1">
          <mxGeometry x="400" y="185" width="400" height="200" as="geometry" />
        </mxCell>
        <mxCell id="7S3_S_a6OIe_uZsWt0qb-47" style="edgeStyle=orthogonalEdgeStyle;rounded=0;orthogonalLoop=1;jettySize=auto;html=1;exitX=1;exitY=0.75;exitDx=0;exitDy=0;fillColor=#f8cecc;gradientColor=#ea6b66;strokeColor=#b85450;strokeWidth=2;" edge="1" parent="1" source="7S3_S_a6OIe_uZsWt0qb-1" target="7S3_S_a6OIe_uZsWt0qb-8">
          <mxGeometry relative="1" as="geometry">
            <Array as="points">
              <mxPoint x="180" y="350" />
              <mxPoint x="180" y="390" />
            </Array>
          </mxGeometry>
        </mxCell>
        <mxCell id="7S3_S_a6OIe_uZsWt0qb-1" value="" style="rounded=0;whiteSpace=wrap;html=1;" vertex="1" parent="1">
          <mxGeometry x="40" y="260" width="120" height="120" as="geometry" />
        </mxCell>
        <mxCell id="7S3_S_a6OIe_uZsWt0qb-2" value="" style="points=[[0.13,0.02,0],[0.5,0,0],[0.87,0.02,0],[0.885,0.4,0],[0.985,0.985,0],[0.5,1,0],[0.015,0.985,0],[0.115,0.4,0]];verticalLabelPosition=bottom;sketch=0;html=1;verticalAlign=top;aspect=fixed;align=center;pointerEvents=1;shape=mxgraph.cisco19.laptop;fillColor=#005073;strokeColor=none;" vertex="1" parent="1">
          <mxGeometry x="50" y="320" width="50" height="35" as="geometry" />
        </mxCell>
        <mxCell id="7S3_S_a6OIe_uZsWt0qb-3" value="" style="sketch=0;points=[[0.015,0.015,0],[0.985,0.015,0],[0.985,0.985,0],[0.015,0.985,0],[0.25,0,0],[0.5,0,0],[0.75,0,0],[1,0.25,0],[1,0.5,0],[1,0.75,0],[0.75,1,0],[0.5,1,0],[0.25,1,0],[0,0.75,0],[0,0.5,0],[0,0.25,0]];verticalLabelPosition=bottom;html=1;verticalAlign=top;aspect=fixed;align=center;pointerEvents=1;shape=mxgraph.cisco19.handheld;fillColor=#005073;strokeColor=none;" vertex="1" parent="1">
          <mxGeometry x="110" y="315" width="37.5" height="50" as="geometry" />
        </mxCell>
        <mxCell id="7S3_S_a6OIe_uZsWt0qb-6" value="&lt;h6 style=&quot;font-size: 15px;&quot;&gt;&lt;div style=&quot;&quot;&gt;&lt;font face=&quot;Comic Sans MS&quot;&gt;&lt;span style=&quot;font-weight: 400;&quot;&gt;N American&lt;/span&gt;&lt;/font&gt;&lt;/div&gt;&lt;div style=&quot;&quot;&gt;&lt;span style=&quot;font-weight: 400;&quot;&gt;&lt;font style=&quot;font-size: 15px;&quot; face=&quot;Comic Sans MS&quot;&gt;Traffic&lt;/font&gt;&lt;/span&gt;&lt;/div&gt;&lt;/h6&gt;" style="text;html=1;strokeColor=none;fillColor=none;align=center;verticalAlign=middle;whiteSpace=wrap;rounded=0;" vertex="1" parent="1">
          <mxGeometry x="55" y="270" width="90" height="30" as="geometry" />
        </mxCell>
        <mxCell id="7S3_S_a6OIe_uZsWt0qb-48" style="edgeStyle=orthogonalEdgeStyle;rounded=0;orthogonalLoop=1;jettySize=auto;html=1;fillColor=#d5e8d4;gradientColor=#97d077;strokeColor=#82b366;strokeWidth=2;" edge="1" parent="1" target="7S3_S_a6OIe_uZsWt0qb-14">
          <mxGeometry relative="1" as="geometry">
            <mxPoint x="320" y="370" as="sourcePoint" />
            <Array as="points">
              <mxPoint x="320" y="370" />
              <mxPoint x="360" y="370" />
              <mxPoint x="360" y="270" />
            </Array>
          </mxGeometry>
        </mxCell>
        <mxCell id="7S3_S_a6OIe_uZsWt0qb-49" style="edgeStyle=orthogonalEdgeStyle;rounded=0;orthogonalLoop=1;jettySize=auto;html=1;strokeWidth=2;fillColor=#f8cecc;gradientColor=#ea6b66;strokeColor=#b85450;" edge="1" parent="1" source="7S3_S_a6OIe_uZsWt0qb-8" target="7S3_S_a6OIe_uZsWt0qb-14">
          <mxGeometry relative="1" as="geometry">
            <Array as="points">
              <mxPoint x="380" y="390" />
              <mxPoint x="380" y="290" />
            </Array>
          </mxGeometry>
        </mxCell>
        <mxCell id="7S3_S_a6OIe_uZsWt0qb-64" style="edgeStyle=orthogonalEdgeStyle;rounded=0;orthogonalLoop=1;jettySize=auto;html=1;fillColor=#d5e8d4;gradientColor=#97d077;strokeColor=#82b366;strokeWidth=2;" edge="1" parent="1" target="7S3_S_a6OIe_uZsWt0qb-31">
          <mxGeometry relative="1" as="geometry">
            <mxPoint x="320" y="410" as="sourcePoint" />
            <Array as="points">
              <mxPoint x="380" y="410" />
              <mxPoint x="380" y="510" />
            </Array>
          </mxGeometry>
        </mxCell>
        <mxCell id="7S3_S_a6OIe_uZsWt0qb-8" value="" style="sketch=0;points=[[0,0,0],[0.25,0,0],[0.5,0,0],[0.75,0,0],[1,0,0],[0,1,0],[0.25,1,0],[0.5,1,0],[0.75,1,0],[1,1,0],[0,0.25,0],[0,0.5,0],[0,0.75,0],[1,0.25,0],[1,0.5,0],[1,0.75,0]];outlineConnect=0;fontColor=#232F3E;fillColor=#8C4FFF;strokeColor=#ffffff;dashed=0;verticalLabelPosition=bottom;verticalAlign=top;align=center;html=1;fontSize=12;fontStyle=0;aspect=fixed;shape=mxgraph.aws4.resourceIcon;resIcon=mxgraph.aws4.route_53;" vertex="1" parent="1">
          <mxGeometry x="240" y="360" width="80" height="80" as="geometry" />
        </mxCell>
        <mxCell id="7S3_S_a6OIe_uZsWt0qb-9" value="&lt;h4 style=&quot;font-size: 15px;&quot;&gt;&lt;span style=&quot;font-weight: normal;&quot;&gt;&lt;font face=&quot;Comic Sans MS&quot;&gt;&lt;font style=&quot;font-size: 15px;&quot;&gt;Latency&amp;nbsp;&lt;/font&gt;Based&lt;br&gt;&lt;/font&gt;&lt;/span&gt;&lt;font face=&quot;Comic Sans MS&quot; style=&quot;font-size: 15px; font-weight: normal;&quot;&gt;Routing&lt;/font&gt;&lt;/h4&gt;" style="text;html=1;strokeColor=none;fillColor=none;align=center;verticalAlign=middle;whiteSpace=wrap;rounded=0;" vertex="1" parent="1">
          <mxGeometry x="210" y="440" width="140" height="60" as="geometry" />
        </mxCell>
        <mxCell id="7S3_S_a6OIe_uZsWt0qb-10" value="" style="rounded=0;whiteSpace=wrap;html=1;" vertex="1" parent="1">
          <mxGeometry x="40" y="420" width="120" height="120" as="geometry" />
        </mxCell>
        <mxCell id="7S3_S_a6OIe_uZsWt0qb-11" value="" style="points=[[0.13,0.02,0],[0.5,0,0],[0.87,0.02,0],[0.885,0.4,0],[0.985,0.985,0],[0.5,1,0],[0.015,0.985,0],[0.115,0.4,0]];verticalLabelPosition=bottom;sketch=0;html=1;verticalAlign=top;aspect=fixed;align=center;pointerEvents=1;shape=mxgraph.cisco19.laptop;fillColor=#005073;strokeColor=none;" vertex="1" parent="1">
          <mxGeometry x="50" y="480" width="50" height="35" as="geometry" />
        </mxCell>
        <mxCell id="7S3_S_a6OIe_uZsWt0qb-12" value="" style="sketch=0;points=[[0.015,0.015,0],[0.985,0.015,0],[0.985,0.985,0],[0.015,0.985,0],[0.25,0,0],[0.5,0,0],[0.75,0,0],[1,0.25,0],[1,0.5,0],[1,0.75,0],[0.75,1,0],[0.5,1,0],[0.25,1,0],[0,0.75,0],[0,0.5,0],[0,0.25,0]];verticalLabelPosition=bottom;html=1;verticalAlign=top;aspect=fixed;align=center;pointerEvents=1;shape=mxgraph.cisco19.handheld;fillColor=#005073;strokeColor=none;" vertex="1" parent="1">
          <mxGeometry x="110" y="475" width="37.5" height="50" as="geometry" />
        </mxCell>
        <mxCell id="7S3_S_a6OIe_uZsWt0qb-13" value="&lt;h6 style=&quot;font-size: 15px;&quot;&gt;&lt;div style=&quot;&quot;&gt;&lt;font face=&quot;Comic Sans MS&quot;&gt;&lt;span style=&quot;font-weight: 400;&quot;&gt;Asian&lt;/span&gt;&lt;/font&gt;&lt;/div&gt;&lt;div style=&quot;&quot;&gt;&lt;span style=&quot;font-weight: 400;&quot;&gt;&lt;font style=&quot;font-size: 15px;&quot; face=&quot;Comic Sans MS&quot;&gt;Traffic&lt;/font&gt;&lt;/span&gt;&lt;/div&gt;&lt;/h6&gt;" style="text;html=1;strokeColor=none;fillColor=none;align=center;verticalAlign=middle;whiteSpace=wrap;rounded=0;" vertex="1" parent="1">
          <mxGeometry x="70" y="430" width="60" height="30" as="geometry" />
        </mxCell>
        <mxCell id="7S3_S_a6OIe_uZsWt0qb-14" value="" style="sketch=0;outlineConnect=0;fontColor=#232F3E;gradientColor=none;fillColor=#8C4FFF;strokeColor=none;dashed=0;verticalLabelPosition=bottom;verticalAlign=top;align=center;html=1;fontSize=12;fontStyle=0;aspect=fixed;pointerEvents=1;shape=mxgraph.aws4.application_load_balancer;" vertex="1" parent="1">
          <mxGeometry x="417.5" y="240" width="78" height="78" as="geometry" />
        </mxCell>
        <mxCell id="7S3_S_a6OIe_uZsWt0qb-18" value="&lt;font style=&quot;font-size: 12px;&quot; face=&quot;Comic Sans MS&quot;&gt;Application Load Balancer&lt;/font&gt;" style="text;html=1;strokeColor=none;fillColor=none;align=center;verticalAlign=middle;whiteSpace=wrap;rounded=0;" vertex="1" parent="1">
          <mxGeometry x="410" y="330" width="93" height="30" as="geometry" />
        </mxCell>
        <mxCell id="7S3_S_a6OIe_uZsWt0qb-19" value="US East 2a AZ" style="sketch=0;outlineConnect=0;gradientColor=none;html=1;whiteSpace=wrap;fontSize=12;fontStyle=0;shape=mxgraph.aws4.group;grIcon=mxgraph.aws4.group_availability_zone;strokeColor=#545B64;fillColor=none;verticalAlign=top;align=left;spacingLeft=30;fontColor=#545B64;dashed=1;" vertex="1" parent="1">
          <mxGeometry x="540" y="200" width="240" height="160" as="geometry" />
        </mxCell>
        <mxCell id="7S3_S_a6OIe_uZsWt0qb-20" value="" style="sketch=0;points=[[0,0,0],[0.25,0,0],[0.5,0,0],[0.75,0,0],[1,0,0],[0,1,0],[0.25,1,0],[0.5,1,0],[0.75,1,0],[1,1,0],[0,0.25,0],[0,0.5,0],[0,0.75,0],[1,0.25,0],[1,0.5,0],[1,0.75,0]];outlineConnect=0;fillColor=#ffcc99;strokeColor=#36393d;dashed=0;verticalLabelPosition=bottom;verticalAlign=top;align=center;html=1;fontSize=12;fontStyle=0;aspect=fixed;shape=mxgraph.aws4.resourceIcon;resIcon=mxgraph.aws4.auto_scaling2;" vertex="1" parent="1">
          <mxGeometry x="580" y="245" width="65" height="65" as="geometry" />
        </mxCell>
        <mxCell id="7S3_S_a6OIe_uZsWt0qb-21" value="&lt;font face=&quot;Comic Sans MS&quot;&gt;EC2 Auto Scaling Group&lt;/font&gt;" style="text;html=1;strokeColor=none;fillColor=none;align=center;verticalAlign=middle;whiteSpace=wrap;rounded=0;" vertex="1" parent="1">
          <mxGeometry x="564" y="315" width="97" height="30" as="geometry" />
        </mxCell>
        <mxCell id="7S3_S_a6OIe_uZsWt0qb-23" value="" style="outlineConnect=0;dashed=0;verticalLabelPosition=bottom;verticalAlign=top;align=center;html=1;shape=mxgraph.aws3.rds_db_instance_read_replica;fillColor=#2E73B8;gradientColor=none;" vertex="1" parent="1">
          <mxGeometry x="700" y="245" width="49.5" height="65" as="geometry" />
        </mxCell>
        <mxCell id="7S3_S_a6OIe_uZsWt0qb-24" value="&lt;font face=&quot;Comic Sans MS&quot;&gt;MySql RDS Read replica&lt;/font&gt;" style="text;html=1;strokeColor=none;fillColor=none;align=center;verticalAlign=middle;whiteSpace=wrap;rounded=0;" vertex="1" parent="1">
          <mxGeometry x="687.37" y="315" width="74.75" height="30" as="geometry" />
        </mxCell>
        <mxCell id="7S3_S_a6OIe_uZsWt0qb-30" value="Asia Pacific &lt;br&gt;South 2 Region" style="sketch=0;outlineConnect=0;gradientColor=none;html=1;whiteSpace=wrap;fontSize=12;fontStyle=0;shape=mxgraph.aws4.group;grIcon=mxgraph.aws4.group_region;strokeColor=#879196;fillColor=none;verticalAlign=top;align=left;spacingLeft=30;fontColor=#879196;dashed=1;" vertex="1" parent="1">
          <mxGeometry x="400" y="420" width="400" height="200" as="geometry" />
        </mxCell>
        <mxCell id="7S3_S_a6OIe_uZsWt0qb-31" value="" style="sketch=0;outlineConnect=0;fontColor=#232F3E;gradientColor=none;fillColor=#8C4FFF;strokeColor=none;dashed=0;verticalLabelPosition=bottom;verticalAlign=top;align=center;html=1;fontSize=12;fontStyle=0;aspect=fixed;pointerEvents=1;shape=mxgraph.aws4.application_load_balancer;" vertex="1" parent="1">
          <mxGeometry x="425" y="478.5" width="78" height="78" as="geometry" />
        </mxCell>
        <mxCell id="7S3_S_a6OIe_uZsWt0qb-32" value="&lt;font style=&quot;font-size: 12px;&quot; face=&quot;Comic Sans MS&quot;&gt;Application Load Balancer&lt;/font&gt;" style="text;html=1;strokeColor=none;fillColor=none;align=center;verticalAlign=middle;whiteSpace=wrap;rounded=0;" vertex="1" parent="1">
          <mxGeometry x="417.5" y="570" width="93" height="30" as="geometry" />
        </mxCell>
        <mxCell id="7S3_S_a6OIe_uZsWt0qb-38" value="AP South 2a" style="sketch=0;outlineConnect=0;gradientColor=none;html=1;whiteSpace=wrap;fontSize=12;fontStyle=0;shape=mxgraph.aws4.group;grIcon=mxgraph.aws4.group_availability_zone;strokeColor=#545B64;fillColor=none;verticalAlign=top;align=left;spacingLeft=30;fontColor=#545B64;dashed=1;" vertex="1" parent="1">
          <mxGeometry x="540" y="440" width="240" height="160" as="geometry" />
        </mxCell>
        <mxCell id="7S3_S_a6OIe_uZsWt0qb-39" value="" style="sketch=0;points=[[0,0,0],[0.25,0,0],[0.5,0,0],[0.75,0,0],[1,0,0],[0,1,0],[0.25,1,0],[0.5,1,0],[0.75,1,0],[1,1,0],[0,0.25,0],[0,0.5,0],[0,0.75,0],[1,0.25,0],[1,0.5,0],[1,0.75,0]];outlineConnect=0;fillColor=#ffcc99;strokeColor=#36393d;dashed=0;verticalLabelPosition=bottom;verticalAlign=top;align=center;html=1;fontSize=12;fontStyle=0;aspect=fixed;shape=mxgraph.aws4.resourceIcon;resIcon=mxgraph.aws4.auto_scaling2;" vertex="1" parent="1">
          <mxGeometry x="580" y="480" width="65" height="65" as="geometry" />
        </mxCell>
        <mxCell id="7S3_S_a6OIe_uZsWt0qb-40" value="&lt;font face=&quot;Comic Sans MS&quot;&gt;EC2 Auto Scaling Group&lt;/font&gt;" style="text;html=1;strokeColor=none;fillColor=none;align=center;verticalAlign=middle;whiteSpace=wrap;rounded=0;" vertex="1" parent="1">
          <mxGeometry x="564" y="550" width="97" height="30" as="geometry" />
        </mxCell>
        <mxCell id="7S3_S_a6OIe_uZsWt0qb-42" value="&lt;font face=&quot;Comic Sans MS&quot;&gt;MySql RDS Primary&lt;/font&gt;" style="text;html=1;strokeColor=none;fillColor=none;align=center;verticalAlign=middle;whiteSpace=wrap;rounded=0;" vertex="1" parent="1">
          <mxGeometry x="687.37" y="550" width="74.75" height="30" as="geometry" />
        </mxCell>
        <mxCell id="7S3_S_a6OIe_uZsWt0qb-43" value="" style="outlineConnect=0;dashed=0;verticalLabelPosition=bottom;verticalAlign=top;align=center;html=1;shape=mxgraph.aws3.rds_db_instance;fillColor=#2E73B8;gradientColor=none;" vertex="1" parent="1">
          <mxGeometry x="699.99" y="479.5" width="49.5" height="66" as="geometry" />
        </mxCell>
        <mxCell id="7S3_S_a6OIe_uZsWt0qb-46" style="edgeStyle=orthogonalEdgeStyle;rounded=0;orthogonalLoop=1;jettySize=auto;html=1;fillColor=#d5e8d4;strokeColor=#82b366;gradientColor=#97d077;strokeWidth=2;" edge="1" parent="1">
          <mxGeometry relative="1" as="geometry">
            <mxPoint x="160" y="280" as="sourcePoint" />
            <mxPoint x="240" y="370" as="targetPoint" />
            <Array as="points">
              <mxPoint x="160" y="281" />
              <mxPoint x="201" y="281" />
              <mxPoint x="201" y="370" />
              <mxPoint x="240" y="370" />
            </Array>
          </mxGeometry>
        </mxCell>
        <mxCell id="7S3_S_a6OIe_uZsWt0qb-50" style="edgeStyle=orthogonalEdgeStyle;rounded=0;orthogonalLoop=1;jettySize=auto;html=1;fillColor=#d5e8d4;gradientColor=#97d077;strokeColor=#82b366;strokeWidth=2;" edge="1" parent="1" source="7S3_S_a6OIe_uZsWt0qb-14">
          <mxGeometry relative="1" as="geometry">
            <mxPoint x="580" y="290" as="targetPoint" />
            <Array as="points">
              <mxPoint x="580" y="290" />
            </Array>
          </mxGeometry>
        </mxCell>
        <mxCell id="7S3_S_a6OIe_uZsWt0qb-51" style="edgeStyle=orthogonalEdgeStyle;rounded=0;orthogonalLoop=1;jettySize=auto;html=1;fillColor=#d5e8d4;gradientColor=#97d077;strokeColor=#82b366;strokeWidth=2;" edge="1" parent="1" target="7S3_S_a6OIe_uZsWt0qb-23">
          <mxGeometry relative="1" as="geometry">
            <mxPoint x="645" y="290" as="sourcePoint" />
            <Array as="points">
              <mxPoint x="645" y="290" />
            </Array>
          </mxGeometry>
        </mxCell>
        <mxCell id="7S3_S_a6OIe_uZsWt0qb-57" style="edgeStyle=orthogonalEdgeStyle;rounded=0;orthogonalLoop=1;jettySize=auto;html=1;fillColor=#f8cecc;gradientColor=#ea6b66;strokeColor=#b85450;strokeWidth=2;" edge="1" parent="1" source="7S3_S_a6OIe_uZsWt0qb-14">
          <mxGeometry relative="1" as="geometry">
            <mxPoint x="580" y="270" as="targetPoint" />
            <Array as="points">
              <mxPoint x="580" y="270" />
            </Array>
          </mxGeometry>
        </mxCell>
        <mxCell id="7S3_S_a6OIe_uZsWt0qb-58" style="edgeStyle=orthogonalEdgeStyle;rounded=0;orthogonalLoop=1;jettySize=auto;html=1;fillColor=#f8cecc;gradientColor=#ea6b66;strokeColor=#b85450;strokeWidth=2;" edge="1" parent="1" source="7S3_S_a6OIe_uZsWt0qb-20">
          <mxGeometry relative="1" as="geometry">
            <mxPoint x="750" y="520" as="targetPoint" />
            <Array as="points">
              <mxPoint x="613" y="160" />
              <mxPoint x="820" y="160" />
              <mxPoint x="820" y="520" />
            </Array>
          </mxGeometry>
        </mxCell>
        <mxCell id="7S3_S_a6OIe_uZsWt0qb-59" style="edgeStyle=orthogonalEdgeStyle;rounded=0;orthogonalLoop=1;jettySize=auto;html=1;entryX=1;entryY=0.5;entryDx=0;entryDy=0;entryPerimeter=0;fillColor=#0050ef;strokeColor=#001DBC;strokeWidth=2;" edge="1" parent="1" target="7S3_S_a6OIe_uZsWt0qb-23">
          <mxGeometry relative="1" as="geometry">
            <mxPoint x="750" y="500" as="sourcePoint" />
            <Array as="points">
              <mxPoint x="750" y="500" />
              <mxPoint x="770" y="500" />
              <mxPoint x="770" y="278" />
            </Array>
          </mxGeometry>
        </mxCell>
        <mxCell id="7S3_S_a6OIe_uZsWt0qb-61" style="edgeStyle=orthogonalEdgeStyle;rounded=0;orthogonalLoop=1;jettySize=auto;html=1;exitX=1;exitY=0.25;exitDx=0;exitDy=0;fillColor=#d5e8d4;gradientColor=#97d077;strokeColor=#82b366;strokeWidth=2;" edge="1" parent="1" source="7S3_S_a6OIe_uZsWt0qb-10">
          <mxGeometry relative="1" as="geometry">
            <mxPoint x="240" y="410" as="targetPoint" />
            <Array as="points">
              <mxPoint x="180" y="450" />
              <mxPoint x="180" y="410" />
              <mxPoint x="240" y="410" />
            </Array>
          </mxGeometry>
        </mxCell>
        <mxCell id="7S3_S_a6OIe_uZsWt0qb-62" style="edgeStyle=orthogonalEdgeStyle;rounded=0;orthogonalLoop=1;jettySize=auto;html=1;exitX=1;exitY=0.75;exitDx=0;exitDy=0;fillColor=#f8cecc;gradientColor=#ea6b66;strokeColor=#b85450;strokeWidth=2;" edge="1" parent="1" source="7S3_S_a6OIe_uZsWt0qb-10" target="7S3_S_a6OIe_uZsWt0qb-8">
          <mxGeometry relative="1" as="geometry">
            <mxPoint x="240" y="436" as="targetPoint" />
            <Array as="points">
              <mxPoint x="200" y="510" />
              <mxPoint x="200" y="430" />
            </Array>
          </mxGeometry>
        </mxCell>
        <mxCell id="7S3_S_a6OIe_uZsWt0qb-66" style="edgeStyle=orthogonalEdgeStyle;rounded=0;orthogonalLoop=1;jettySize=auto;html=1;fillColor=#f8cecc;gradientColor=#ea6b66;strokeColor=#b85450;strokeWidth=2;" edge="1" parent="1">
          <mxGeometry relative="1" as="geometry">
            <mxPoint x="320" y="430" as="sourcePoint" />
            <mxPoint x="426" y="530" as="targetPoint" />
            <Array as="points">
              <mxPoint x="320" y="430" />
              <mxPoint x="360" y="430" />
              <mxPoint x="360" y="530" />
            </Array>
          </mxGeometry>
        </mxCell>
        <mxCell id="7S3_S_a6OIe_uZsWt0qb-68" style="edgeStyle=orthogonalEdgeStyle;rounded=0;orthogonalLoop=1;jettySize=auto;html=1;fillColor=#d5e8d4;gradientColor=#97d077;strokeColor=#82b366;strokeWidth=2;entryX=0;entryY=0.5;entryDx=0;entryDy=0;entryPerimeter=0;" edge="1" parent="1" source="7S3_S_a6OIe_uZsWt0qb-31" target="7S3_S_a6OIe_uZsWt0qb-39">
          <mxGeometry relative="1" as="geometry">
            <mxPoint x="506" y="280" as="sourcePoint" />
            <mxPoint x="590" y="280" as="targetPoint" />
            <Array as="points">
              <mxPoint x="570" y="513" />
            </Array>
          </mxGeometry>
        </mxCell>
        <mxCell id="7S3_S_a6OIe_uZsWt0qb-69" style="edgeStyle=orthogonalEdgeStyle;rounded=0;orthogonalLoop=1;jettySize=auto;html=1;fillColor=#f8cecc;gradientColor=#ea6b66;strokeColor=#b85450;strokeWidth=2;" edge="1" parent="1">
          <mxGeometry relative="1" as="geometry">
            <mxPoint x="500" y="530" as="sourcePoint" />
            <mxPoint x="580" y="530" as="targetPoint" />
            <Array as="points">
              <mxPoint x="500" y="530" />
            </Array>
          </mxGeometry>
        </mxCell>
        <mxCell id="7S3_S_a6OIe_uZsWt0qb-70" style="edgeStyle=orthogonalEdgeStyle;rounded=0;orthogonalLoop=1;jettySize=auto;html=1;entryX=0;entryY=0.5;entryDx=0;entryDy=0;entryPerimeter=0;fillColor=#d5e8d4;gradientColor=#97d077;strokeColor=#82b366;strokeWidth=2;" edge="1" parent="1" source="7S3_S_a6OIe_uZsWt0qb-39" target="7S3_S_a6OIe_uZsWt0qb-43">
          <mxGeometry relative="1" as="geometry" />
        </mxCell>
        <mxCell id="7S3_S_a6OIe_uZsWt0qb-72" style="edgeStyle=orthogonalEdgeStyle;rounded=0;orthogonalLoop=1;jettySize=auto;html=1;fillColor=#f8cecc;gradientColor=#ea6b66;strokeColor=#b85450;strokeWidth=2;" edge="1" parent="1" target="7S3_S_a6OIe_uZsWt0qb-43">
          <mxGeometry relative="1" as="geometry">
            <mxPoint x="645" y="529" as="sourcePoint" />
            <mxPoint x="690" y="529" as="targetPoint" />
            <Array as="points">
              <mxPoint x="645" y="530" />
            </Array>
          </mxGeometry>
        </mxCell>
        <mxCell id="7S3_S_a6OIe_uZsWt0qb-73" value="&lt;span style=&quot;background-color: rgb(184, 84, 80);&quot;&gt;&amp;nbsp; &amp;nbsp;&amp;nbsp;&lt;/span&gt;" style="text;html=1;strokeColor=none;fillColor=none;align=center;verticalAlign=middle;whiteSpace=wrap;rounded=0;" vertex="1" parent="1">
          <mxGeometry x="40" y="575" width="20" height="20" as="geometry" />
        </mxCell>
        <mxCell id="7S3_S_a6OIe_uZsWt0qb-74" value="&lt;font face=&quot;Comic Sans MS&quot;&gt;Write Traffic&lt;/font&gt;" style="text;html=1;strokeColor=none;fillColor=none;align=left;verticalAlign=middle;whiteSpace=wrap;rounded=0;" vertex="1" parent="1">
          <mxGeometry x="60" y="570" width="90" height="30" as="geometry" />
        </mxCell>
        <mxCell id="7S3_S_a6OIe_uZsWt0qb-75" value="&lt;span style=&quot;background-color: rgb(130, 179, 102);&quot;&gt;&amp;nbsp; &amp;nbsp;&amp;nbsp;&lt;/span&gt;" style="text;html=1;strokeColor=none;fillColor=none;align=center;verticalAlign=middle;whiteSpace=wrap;rounded=0;" vertex="1" parent="1">
          <mxGeometry x="40" y="595" width="20" height="20" as="geometry" />
        </mxCell>
        <mxCell id="7S3_S_a6OIe_uZsWt0qb-76" value="&lt;font face=&quot;Comic Sans MS&quot;&gt;Read&amp;nbsp; &amp;nbsp;Traffic&lt;/font&gt;" style="text;html=1;strokeColor=none;fillColor=none;align=left;verticalAlign=middle;whiteSpace=wrap;rounded=0;" vertex="1" parent="1">
          <mxGeometry x="60" y="590" width="90" height="30" as="geometry" />
        </mxCell>
      </root>
    </mxGraphModel>
  </diagram>
</mxfile>
